<?xml version="1.0" encoding="iso-8859-1"?>
<!-- Generator: Adobe Illustrator 19.0.0, SVG Export Plug-In . SVG Version: 6.00 Build 0)  -->
<svg version="1.1" id="Capa_1" xmlns="http://www.w3.org/2000/svg" xmlns:xlink="http://www.w3.org/1999/xlink" x="0px" y="0px"
	 viewBox="0 0 351.66 351.66" style="enable-background:new 0 0 351.66 351.66; fill:#fff" xml:space="preserve">
<g>
	<g>
		<path d="M344.566,146.952c-18.4-56.8-61.6-68.4-94-68.4c-20.4,0-37.2,4.4-43.6,6.4l-2.8,0.8l-2.4-1.6c-4-2.4-8.4-4.4-12.8-5.6
			c9.2-38.8,52-52,52-52l-19.6-20.8c0,0-12,1.2-29.6,15.2c-17.6,14.4-22,50.4-22,50.4s0.4,2.4,1.6,6c-6.4,0.8-12.8,3.2-18.4,7.2
			l-2.4,1.6l-2.8-1.2c-0.4,0-20.8-7.2-46.4-7.2c-32.8,0-75.6,12-94,68.4c-15.6,47.2-6,102,24.8,144.4c24,33.2,56,52,88,52
			c9.2,0,18.4-1.6,27.2-4.8l2.8-1.2l2.4,1.6c14.4,10,34.4,10.4,49.2,0.8l2.4-1.6l2.8,0.8c8,2.4,16.4,4,24.8,4c16,0,32-4.8,46.8-13.6
			c15.2-8.8,28.8-22,40.8-38.4C350.166,248.152,359.766,193.352,344.566,146.952z M275.766,139.352c-25.2,80.8-74.4,31.6-74.4,31.6
			L275.766,139.352z M154.166,170.552c0,0-49.2,49.2-74.4-31.6L154.166,170.552z M261.366,269.352l-13.6-14.4l-45.2,29.6l-26.8-22
			l-26.4,22l-45.6-29.6l-14,14.4l-45.2-69.6l45.2,28.8l14-14.4l45.2,29.6l26.4-22l26.4,22l46-29.6l14,14.4l45.2-28.8
			L261.366,269.352z"/>
	</g>
</g>
<g>
</g>
<g>
</g>
<g>
</g>
<g>
</g>
<g>
</g>
<g>
</g>
<g>
</g>
<g>
</g>
<g>
</g>
<g>
</g>
<g>
</g>
<g>
</g>
<g>
</g>
<g>
</g>
<g>
</g>
</svg>
